<svg width="233" height="365" viewBox="0 0 233 365" fill="none" xmlns="http://www.w3.org/2000/svg">
<mask id="mask0" mask-type="alpha" maskUnits="userSpaceOnUse" x="35" y="0" width="185" height="365">
<path d="M127.5 5C128.881 5 130 3.88071 130 2.5C130 1.11929 128.881 0 127.5 0C126.119 0 125 1.11929 125 2.5C125 3.88071 126.119 5 127.5 5Z" fill="#50566A"/>
<path d="M127.5 50C128.881 50 130 48.8807 130 47.5C130 46.1193 128.881 45 127.5 45C126.119 45 125 46.1193 125 47.5C125 48.8807 126.119 50 127.5 50Z" fill="#50566A"/>
<path d="M127.5 95C128.881 95 130 93.8807 130 92.5C130 91.1193 128.881 90 127.5 90C126.119 90 125 91.1193 125 92.5C125 93.8807 126.119 95 127.5 95Z" fill="#50566A"/>
<path d="M127.5 140C128.881 140 130 138.881 130 137.5C130 136.119 128.881 135 127.5 135C126.119 135 125 136.119 125 137.5C125 138.881 126.119 140 127.5 140Z" fill="#50566A"/>
<path d="M127.5 185C128.881 185 130 183.881 130 182.5C130 181.119 128.881 180 127.5 180C126.119 180 125 181.119 125 182.5C125 183.881 126.119 185 127.5 185Z" fill="#50566A"/>
<path d="M127.5 230C128.881 230 130 228.881 130 227.5C130 226.119 128.881 225 127.5 225C126.119 225 125 226.119 125 227.5C125 228.881 126.119 230 127.5 230Z" fill="#50566A"/>
<path d="M127.5 275C128.881 275 130 273.881 130 272.5C130 271.119 128.881 270 127.5 270C126.119 270 125 271.119 125 272.5C125 273.881 126.119 275 127.5 275Z" fill="#50566A"/>
<path d="M127.5 365C128.881 365 130 363.881 130 362.5C130 361.119 128.881 360 127.5 360C126.119 360 125 361.119 125 362.5C125 363.881 126.119 365 127.5 365Z" fill="#50566A"/>
<path d="M127.5 320C128.881 320 130 318.881 130 317.5C130 316.119 128.881 315 127.5 315C126.119 315 125 316.119 125 317.5C125 318.881 126.119 320 127.5 320Z" fill="#50566A"/>
<path d="M37.5 5C38.8807 5 40 3.88071 40 2.5C40 1.11929 38.8807 0 37.5 0C36.1193 0 35 1.11929 35 2.5C35 3.88071 36.1193 5 37.5 5Z" fill="#50566A"/>
<path d="M37.5 50C38.8807 50 40 48.8807 40 47.5C40 46.1193 38.8807 45 37.5 45C36.1193 45 35 46.1193 35 47.5C35 48.8807 36.1193 50 37.5 50Z" fill="#50566A"/>
<path d="M37.5 95C38.8807 95 40 93.8807 40 92.5C40 91.1193 38.8807 90 37.5 90C36.1193 90 35 91.1193 35 92.5C35 93.8807 36.1193 95 37.5 95Z" fill="#50566A"/>
<path d="M37.5 140C38.8807 140 40 138.881 40 137.5C40 136.119 38.8807 135 37.5 135C36.1193 135 35 136.119 35 137.5C35 138.881 36.1193 140 37.5 140Z" fill="#50566A"/>
<path d="M37.5 185C38.8807 185 40 183.881 40 182.5C40 181.119 38.8807 180 37.5 180C36.1193 180 35 181.119 35 182.5C35 183.881 36.1193 185 37.5 185Z" fill="#50566A"/>
<path d="M37.5 230C38.8807 230 40 228.881 40 227.5C40 226.119 38.8807 225 37.5 225C36.1193 225 35 226.119 35 227.5C35 228.881 36.1193 230 37.5 230Z" fill="#50566A"/>
<path d="M37.5 275C38.8807 275 40 273.881 40 272.5C40 271.119 38.8807 270 37.5 270C36.1193 270 35 271.119 35 272.5C35 273.881 36.1193 275 37.5 275Z" fill="#50566A"/>
<path d="M37.5 365C38.8807 365 40 363.881 40 362.5C40 361.119 38.8807 360 37.5 360C36.1193 360 35 361.119 35 362.5C35 363.881 36.1193 365 37.5 365Z" fill="#50566A"/>
<path d="M37.5 320C38.8807 320 40 318.881 40 317.5C40 316.119 38.8807 315 37.5 315C36.1193 315 35 316.119 35 317.5C35 318.881 36.1193 320 37.5 320Z" fill="#50566A"/>
<path d="M172.5 5C173.881 5 175 3.88071 175 2.5C175 1.11929 173.881 0 172.5 0C171.119 0 170 1.11929 170 2.5C170 3.88071 171.119 5 172.5 5Z" fill="#50566A"/>
<path d="M172.5 50C173.881 50 175 48.8807 175 47.5C175 46.1193 173.881 45 172.5 45C171.119 45 170 46.1193 170 47.5C170 48.8807 171.119 50 172.5 50Z" fill="#50566A"/>
<path d="M172.5 95C173.881 95 175 93.8807 175 92.5C175 91.1193 173.881 90 172.5 90C171.119 90 170 91.1193 170 92.5C170 93.8807 171.119 95 172.5 95Z" fill="#50566A"/>
<path d="M172.5 140C173.881 140 175 138.881 175 137.5C175 136.119 173.881 135 172.5 135C171.119 135 170 136.119 170 137.5C170 138.881 171.119 140 172.5 140Z" fill="#50566A"/>
<path d="M172.5 185C173.881 185 175 183.881 175 182.5C175 181.119 173.881 180 172.5 180C171.119 180 170 181.119 170 182.5C170 183.881 171.119 185 172.5 185Z" fill="#50566A"/>
<path d="M172.5 230C173.881 230 175 228.881 175 227.5C175 226.119 173.881 225 172.5 225C171.119 225 170 226.119 170 227.5C170 228.881 171.119 230 172.5 230Z" fill="#50566A"/>
<path d="M172.5 275C173.881 275 175 273.881 175 272.5C175 271.119 173.881 270 172.5 270C171.119 270 170 271.119 170 272.5C170 273.881 171.119 275 172.5 275Z" fill="#50566A"/>
<path d="M172.5 365C173.881 365 175 363.881 175 362.5C175 361.119 173.881 360 172.5 360C171.119 360 170 361.119 170 362.5C170 363.881 171.119 365 172.5 365Z" fill="#50566A"/>
<path d="M172.5 320C173.881 320 175 318.881 175 317.5C175 316.119 173.881 315 172.5 315C171.119 315 170 316.119 170 317.5C170 318.881 171.119 320 172.5 320Z" fill="#50566A"/>
<path d="M82.5 5C83.8807 5 85 3.88071 85 2.5C85 1.11929 83.8807 0 82.5 0C81.1193 0 80 1.11929 80 2.5C80 3.88071 81.1193 5 82.5 5Z" fill="#50566A"/>
<path d="M82.5 50C83.8807 50 85 48.8807 85 47.5C85 46.1193 83.8807 45 82.5 45C81.1193 45 80 46.1193 80 47.5C80 48.8807 81.1193 50 82.5 50Z" fill="#50566A"/>
<path d="M82.5 95C83.8807 95 85 93.8807 85 92.5C85 91.1193 83.8807 90 82.5 90C81.1193 90 80 91.1193 80 92.5C80 93.8807 81.1193 95 82.5 95Z" fill="#50566A"/>
<path d="M82.5 140C83.8807 140 85 138.881 85 137.5C85 136.119 83.8807 135 82.5 135C81.1193 135 80 136.119 80 137.5C80 138.881 81.1193 140 82.5 140Z" fill="#50566A"/>
<path d="M82.5 185C83.8807 185 85 183.881 85 182.5C85 181.119 83.8807 180 82.5 180C81.1193 180 80 181.119 80 182.5C80 183.881 81.1193 185 82.5 185Z" fill="#50566A"/>
<path d="M82.5 230C83.8807 230 85 228.881 85 227.5C85 226.119 83.8807 225 82.5 225C81.1193 225 80 226.119 80 227.5C80 228.881 81.1193 230 82.5 230Z" fill="#50566A"/>
<path d="M82.5 275C83.8807 275 85 273.881 85 272.5C85 271.119 83.8807 270 82.5 270C81.1193 270 80 271.119 80 272.5C80 273.881 81.1193 275 82.5 275Z" fill="#50566A"/>
<path d="M82.5 365C83.8807 365 85 363.881 85 362.5C85 361.119 83.8807 360 82.5 360C81.1193 360 80 361.119 80 362.5C80 363.881 81.1193 365 82.5 365Z" fill="#50566A"/>
<path d="M82.5 320C83.8807 320 85 318.881 85 317.5C85 316.119 83.8807 315 82.5 315C81.1193 315 80 316.119 80 317.5C80 318.881 81.1193 320 82.5 320Z" fill="#50566A"/>
<path d="M217.5 5C218.881 5 220 3.88071 220 2.5C220 1.11929 218.881 0 217.5 0C216.119 0 215 1.11929 215 2.5C215 3.88071 216.119 5 217.5 5Z" fill="#50566A"/>
<path d="M217.5 50C218.881 50 220 48.8807 220 47.5C220 46.1193 218.881 45 217.5 45C216.119 45 215 46.1193 215 47.5C215 48.8807 216.119 50 217.5 50Z" fill="#50566A"/>
<path d="M217.5 95C218.881 95 220 93.8807 220 92.5C220 91.1193 218.881 90 217.5 90C216.119 90 215 91.1193 215 92.5C215 93.8807 216.119 95 217.5 95Z" fill="#50566A"/>
<path d="M217.5 140C218.881 140 220 138.881 220 137.5C220 136.119 218.881 135 217.5 135C216.119 135 215 136.119 215 137.5C215 138.881 216.119 140 217.5 140Z" fill="#50566A"/>
<path d="M217.5 185C218.881 185 220 183.881 220 182.5C220 181.119 218.881 180 217.5 180C216.119 180 215 181.119 215 182.5C215 183.881 216.119 185 217.5 185Z" fill="#50566A"/>
<path d="M217.5 230C218.881 230 220 228.881 220 227.5C220 226.119 218.881 225 217.5 225C216.119 225 215 226.119 215 227.5C215 228.881 216.119 230 217.5 230Z" fill="#50566A"/>
<path d="M217.5 275C218.881 275 220 273.881 220 272.5C220 271.119 218.881 270 217.5 270C216.119 270 215 271.119 215 272.5C215 273.881 216.119 275 217.5 275Z" fill="#50566A"/>
<path d="M217.5 365C218.881 365 220 363.881 220 362.5C220 361.119 218.881 360 217.5 360C216.119 360 215 361.119 215 362.5C215 363.881 216.119 365 217.5 365Z" fill="#50566A"/>
<path d="M217.5 320C218.881 320 220 318.881 220 317.5C220 316.119 218.881 315 217.5 315C216.119 315 215 316.119 215 317.5C215 318.881 216.119 320 217.5 320Z" fill="#50566A"/>
</mask>
<g mask="url(#mask0)">
<path d="M220 -16H1V381H220V-16Z" fill="#4D5367"/>
</g>
</svg>
